<svg width="186" height="67" viewBox="0 0 186 67" fill="none" xmlns="http://www.w3.org/2000/svg">
<path fill-rule="evenodd" clip-rule="evenodd" d="M30.654 32.7222C35.7491 31.3535 42.9652 27.8011 42.9652 19.1431C42.9652 14.9478 41.1373 10.9371 37.87 8.7535C35.0422 6.74815 31.017 5.65317 24.1767 5.65317H0.745172V8.19965C8.03767 8.74714 8.38796 9.28826 8.38796 16.8577V53.5905C8.38796 61.23 7.84023 61.7902 0 62.3377V64.8841H20.1642C27.3676 64.8841 33.3862 63.7892 38.0356 61.2363C43.4174 58.2315 46.793 53.5969 46.793 47.479C46.793 38.3626 39.6788 34.3519 30.654 32.9832V32.7222ZM163.696 64.8969H143.372V62.5287C149.104 61.9812 149.939 61.4337 149.939 55.4176V12.3058C149.939 6.10517 149.391 5.83142 143.646 5.37943V3.18309C148.238 2.57194 152.76 1.50242 157.142 0V42.3861H158.881C162.594 42.3861 165.008 42.0677 166.829 40.6099C169.67 38.4263 170.835 35.918 170.835 31.9837C170.835 27.1963 168.982 24.2424 166.237 22.6636L166.555 21.9442L171.167 20.3718C171.733 20.6455 172.275 20.9511 172.803 21.2949C175.72 23.2047 177.618 26.4706 177.618 30.8442C177.618 37.1149 173.752 40.9791 168.358 43.3091C169.6 45.7156 172.657 50.5984 174.848 53.877C177.472 57.6967 178.93 59.562 180.752 61.4591C182.109 63.1143 183.943 64.3112 186 64.8841L185.866 65.769C185.325 66.4057 184.694 66.6985 183.376 66.7112H183.159C177.631 66.4248 173.3 64.8014 170.02 60.0777C167.473 56.5062 164.842 51.9863 162.658 48.4148C161.384 46.3777 159.97 45.5055 157.709 45.5055H157.142V55.4176C157.142 61.4337 157.868 61.9812 163.709 62.5287L163.696 64.8969ZM89.1786 13.5345C89.2168 13.4263 89.0321 13.2608 88.8028 13.2608C88.7264 13.2544 88.6563 13.2799 88.6118 13.3435C87.8093 14.9987 86.1724 16.0873 84.3382 16.1892H82.0581C81.453 16.2592 80.9053 15.82 80.8416 15.2215C80.8289 15.1324 80.8352 15.0433 80.8416 14.9542V9.81029H83.4847C84.5738 9.81029 85.1789 10.0777 85.3954 12.1085C85.3954 12.1912 85.5228 12.2804 85.6884 12.2804C85.854 12.2804 85.9814 12.1912 85.9814 12.1085C85.9814 11.0644 85.8604 10.4978 85.8604 9.51744C85.8604 8.53705 85.9814 7.98956 85.9814 6.97097C85.9814 6.86911 85.8349 6.80545 85.6884 6.80545C85.5419 6.80545 85.3954 6.86911 85.3954 6.97097C85.147 9.00178 84.542 9.1673 83.4847 9.1673H80.8352V4.45633C80.7461 3.84518 81.1664 3.27858 81.7715 3.18946C81.867 3.17673 81.9562 3.17036 82.0517 3.18309H84.1662C85.7266 3.08123 87.1278 4.12529 87.4781 5.65317C87.5163 5.74866 87.6055 5.80596 87.7074 5.79959C87.9367 5.79959 88.1022 5.69773 88.064 5.55131C87.7456 4.51362 87.5163 3.44411 87.3698 2.36822C86.0514 2.43188 83.351 2.49554 81.9498 2.49554C80.5486 2.49554 77.8673 2.43188 76.5489 2.36822C76.4406 2.36822 76.3769 2.51464 76.3769 2.66106C76.3769 2.80749 76.4406 2.95391 76.5489 2.95391C78.5742 3.20856 78.7016 3.64782 78.7016 4.73644V14.6422C78.7016 15.7117 78.5742 16.1701 76.5489 16.3993C76.4406 16.3993 76.3769 16.5266 76.3769 16.6921C76.3769 16.8577 76.4406 16.985 76.5489 16.985C77.8673 16.9468 80.7779 16.8577 82.16 16.8577C83.542 16.8577 86.4718 16.9468 87.7902 16.985C88.1723 15.8009 88.6372 14.6486 89.1786 13.5345ZM96.8214 14.2857C96.8214 11.7392 92.2166 11.6692 92.2166 9.72116C92.2166 8.82353 92.7198 8.3015 93.8471 8.3015C94.7706 8.35243 95.503 9.09091 95.5476 10.014C95.5476 10.1222 95.6877 10.1859 95.8406 10.1859C95.9934 10.1859 96.1526 10.1031 96.1335 10.014C96.0699 9.37739 96.0253 8.65801 96.0062 7.9259C95.5858 7.9259 94.6878 7.63305 93.7643 7.63305C92.0892 7.63305 90.5798 8.80443 90.5798 10.3069C90.5798 13.3881 95.1018 12.9488 95.1018 14.9987C95.1782 15.8263 94.5668 16.5584 93.7388 16.6285C93.6433 16.6348 93.5414 16.6348 93.4458 16.6285C92.3313 16.5266 91.3823 15.7754 91.0192 14.7186C91.0192 14.6104 90.8728 14.5467 90.7263 14.5467C90.5798 14.5467 90.4142 14.6359 90.4333 14.7186C90.5416 15.2597 90.7263 16.2019 90.8091 16.934C91.446 16.934 92.5096 17.3097 93.4267 17.3097C95.2355 17.2969 96.8214 16.0428 96.8214 14.2857ZM104.4 8.65801C104.4 8.3397 104.292 8.09142 104.127 8.09142H101.05L101.133 6.07971C101.133 5.99695 100.987 5.91418 100.84 5.91418C100.719 5.91418 100.611 5.97785 100.547 6.07971C99.8785 7.0601 99.0123 7.8877 97.9997 8.51159C97.8914 8.58162 97.8213 8.69621 97.8086 8.82353C97.8022 8.96359 97.9041 9.07818 98.0379 9.09728H98.834C98.9805 9.09728 99.0951 9.23097 99.0888 9.37739V9.39012L99.0442 14.4831C98.9041 15.8454 99.8912 17.0677 101.254 17.2142C101.388 17.2269 101.528 17.2333 101.662 17.2205C102.56 17.2333 103.426 16.9086 104.095 16.3038C104.158 16.2401 104.19 16.1574 104.197 16.0682C104.197 15.8836 104.05 15.6735 103.942 15.7372C103.477 16.0173 102.936 16.1574 102.394 16.1319C101.413 16.1319 100.993 15.4953 100.993 14.1648V9.13547L104.114 9.21823C104.299 9.21823 104.407 8.98905 104.407 8.65801H104.4ZM110.859 12.4777L110.776 15.2788C110.375 15.89 109.687 16.2529 108.954 16.2401C108.222 16.2401 107.802 15.699 107.802 14.7568C107.808 13.4708 109.298 12.8661 110.865 12.5096V12.4777H110.859ZM114.495 16.0301C114.495 15.7818 114.285 15.5908 114.183 15.6799C113.973 15.9155 113.68 16.0619 113.368 16.0937C113.05 16.0937 112.636 15.9282 112.655 14.9223L112.801 10.1923C112.935 8.89993 111.999 7.74128 110.699 7.60759C110.553 7.59486 110.4 7.58849 110.254 7.60759C108.642 7.60759 106.069 9.07181 106.069 10.1541C106.056 10.5424 106.356 10.8734 106.751 10.8862C106.776 10.8862 106.802 10.8862 106.821 10.8862C107.458 10.8862 108.056 10.4469 108.095 9.46652C108.095 8.8299 108.833 8.41609 109.585 8.41609C110.336 8.41609 110.967 9.05271 110.948 10.1095L110.884 11.7456C109.521 12.1021 105.789 13.1271 105.789 15.2215C105.789 16.3356 106.681 17.246 107.795 17.2524C107.84 17.2524 107.878 17.2524 107.923 17.2524C109.012 17.2778 110.069 16.864 110.852 16.1064C111.088 16.794 111.75 17.2396 112.476 17.2014C113.228 17.1823 113.929 16.8322 114.387 16.2401C114.444 16.2019 114.483 16.1446 114.502 16.0746V16.0428L114.495 16.0301ZM121.234 8.65801C121.234 8.3397 121.132 8.09142 120.96 8.09142H117.884L117.966 6.07971C117.966 5.99695 117.82 5.91418 117.673 5.91418C117.552 5.91418 117.444 5.97785 117.381 6.07971C116.712 7.0601 115.846 7.8877 114.833 8.51159C114.725 8.58162 114.655 8.69621 114.648 8.82353C114.635 8.96359 114.737 9.08454 114.877 9.09728H115.674C115.82 9.09728 115.928 9.2246 115.922 9.37102V9.39012L115.884 14.4831C115.737 15.8454 116.718 17.0614 118.081 17.2142C118.221 17.2269 118.361 17.2333 118.501 17.2205C119.399 17.2333 120.266 16.9022 120.928 16.3038C120.992 16.2401 121.03 16.1574 121.03 16.0682C121.03 15.8836 120.883 15.6735 120.782 15.7372C120.317 16.0173 119.775 16.1574 119.234 16.1319C118.247 16.1319 117.826 15.4953 117.826 14.1648V9.13547L120.947 9.21823C121.132 9.21823 121.234 8.98905 121.234 8.65801ZM130.787 11.0453C130.634 9.07181 128.947 7.56303 126.966 7.63305C124.202 7.63305 122.508 9.99491 122.508 12.5287C122.508 15.0624 124.418 17.2969 126.966 17.2969C128.482 17.2269 129.87 16.4184 130.673 15.1261C130.711 15.0751 130.736 15.0178 130.736 14.9542C130.736 14.6613 130.482 14.4958 130.418 14.5977C129.762 15.4444 128.768 15.96 127.698 16.0046C125.839 16.0046 124.622 14.8523 124.622 12.5096C124.622 12.1148 124.641 11.7201 124.686 11.3318H130.418C130.609 11.3318 130.755 11.2299 130.755 11.0453H130.787ZM128.877 10.1222C128.877 10.4596 128.705 10.6443 127.66 10.6634L124.749 10.7461C124.998 9.42832 125.775 8.3015 126.947 8.3015C127.94 8.24421 128.794 9.00178 128.851 10.0013C128.851 10.0395 128.851 10.084 128.851 10.1222H128.877ZM140.978 52.2091C137.526 56.7991 134.749 58.397 130.889 59.0782C125.864 59.9631 116.75 58.066 114.546 45.5882C112.839 36.1599 117.189 30.303 123.106 29.2844C126.469 28.7179 129.915 29.4754 132.736 31.3853C133.666 31.9582 134.169 32.1492 134.647 32.0728C135.634 31.8946 137.264 29.5773 136.927 27.6865C136.755 26.6998 136.341 25.9422 135.016 25.1401C133.373 24.2297 130.201 23.5803 126.609 24.217C123.017 24.8536 117.903 27.1645 113.871 31.5763C108.674 37.3058 106.7 43.1755 107.923 50.0828C109.617 59.6893 117.877 67.6725 129.189 65.6799C134.488 64.7441 139.806 59.7339 142.844 53.8324L140.978 52.2091ZM105.98 61.3445L105.088 58.97C104.095 59.5747 102.967 59.9249 101.808 59.9758C100.254 59.9758 98.6238 58.6071 98.6238 54.5073V37.5605C98.6238 32.8177 97.7067 29.0807 94.5158 26.4388C92.3758 24.7963 89.7391 23.9241 87.0386 23.9814C81.8415 24.9809 75.912 28.5332 73.3644 30.3476C71.632 31.6208 70.4474 32.6267 70.4474 33.9891C70.4474 36.0899 72.8167 37.9106 74.4599 37.9106C75.7591 37.9552 76.8801 37.013 77.0648 35.727C77.7908 32.9959 78.6124 30.9906 79.7971 29.8065C80.8225 28.6096 82.3383 27.9475 83.9115 28.0112C88.4716 28.0112 91.5542 31.7482 91.5542 38.3053V39.9478C89.548 41.5903 82.8924 44.0476 77.4214 45.8747C72.409 47.6063 70.0334 50.4329 70.0334 54.8956C69.9697 60.9753 74.8484 65.9537 80.9308 66.0173H80.9753C83.714 66.0173 88.0895 62.6432 91.7389 60.1795C92.1147 61.7074 92.8662 63.1207 93.9235 64.2857C95.1336 65.3043 96.6367 65.9091 98.2098 66.0173L105.98 61.3445ZM91.5733 57.2384C89.841 58.8808 86.6501 60.4215 84.2809 60.5233C81.453 60.5233 77.8036 58.2442 77.8036 53.5205C77.8036 50.2419 79.8098 48.5103 83.3701 46.8678C85.2808 45.9575 89.6563 44.0413 91.5733 43.0481V57.2384ZM67.6068 64.8778V62.5287C61.7792 61.9812 61.0404 61.4337 61.0404 55.4176V0C56.6585 1.50242 52.1366 2.57194 47.5445 3.18309V5.37943C53.2766 5.83142 53.8371 6.10517 53.8371 12.3058V55.4176C53.8371 61.4337 53.0155 61.9812 47.2706 62.5287V64.8969L67.6068 64.8778ZM16.0626 34.9122H20.2534C31.38 34.9122 37.7617 39.012 37.7617 48.4021C37.7617 57.7922 31.1061 61.7074 23.629 61.7711C17.795 61.7711 16.0626 60.0395 16.0626 53.495V34.9122ZM16.0626 31.9009V14.0374C16.0626 11.0262 16.4256 10.0267 17.2472 9.47925C18.0688 8.93176 20.1642 8.56888 22.4443 8.56888C31.1062 8.56888 34.5454 14.0374 34.5454 20.2317C34.5454 27.8712 30.3546 31.9009 20.3234 31.9009H16.0626Z" fill="#45040C"/>
</svg>
