<svg width="236" height="40" viewBox="0 0 236 40" fill="none" xmlns="http://www.w3.org/2000/svg">
<path d="M18.0979 5.8541C18.6966 4.01148 21.3034 4.01148 21.9021 5.8541L24.0413 12.4377C24.309 13.2617 25.0769 13.8197 25.9434 13.8197H32.8658C34.8032 13.8197 35.6088 16.2989 34.0413 17.4377L28.441 21.5066C27.74 22.0159 27.4467 22.9186 27.7145 23.7426L29.8536 30.3262C30.4523 32.1689 28.3433 33.7011 26.7759 32.5623L21.1756 28.4934C20.4746 27.9841 19.5254 27.9841 18.8244 28.4934L13.2241 32.5623C11.6567 33.7011 9.5477 32.1689 10.1464 30.3262L12.2855 23.7426C12.5533 22.9186 12.26 22.0159 11.559 21.5066L5.95867 17.4377C4.39124 16.2989 5.19679 13.8197 7.13424 13.8197H14.0566C14.9231 13.8197 15.691 13.2617 15.9587 12.4377L18.0979 5.8541Z" fill="#F5F1ED"/>
<path d="M67.0979 5.8541C67.6966 4.01148 70.3034 4.01148 70.9021 5.8541L73.0413 12.4377C73.309 13.2617 74.0769 13.8197 74.9434 13.8197H81.8658C83.8032 13.8197 84.6088 16.2989 83.0413 17.4377L77.441 21.5066C76.74 22.0159 76.4467 22.9186 76.7145 23.7426L78.8536 30.3262C79.4523 32.1689 77.3433 33.7011 75.7759 32.5623L70.1756 28.4934C69.4746 27.9841 68.5254 27.9841 67.8244 28.4934L62.2241 32.5623C60.6567 33.7011 58.5477 32.1689 59.1464 30.3262L61.2855 23.7426C61.5533 22.9186 61.26 22.0159 60.559 21.5066L54.9587 17.4377C53.3912 16.2989 54.1968 13.8197 56.1342 13.8197H63.0566C63.9231 13.8197 64.691 13.2617 64.9587 12.4377L67.0979 5.8541Z" fill="#F5F1ED"/>
<path d="M116.098 5.8541C116.697 4.01148 119.303 4.01148 119.902 5.8541L122.041 12.4377C122.309 13.2617 123.077 13.8197 123.943 13.8197H130.866C132.803 13.8197 133.609 16.2989 132.041 17.4377L126.441 21.5066C125.74 22.0159 125.447 22.9186 125.714 23.7426L127.854 30.3262C128.452 32.1689 126.343 33.7011 124.776 32.5623L119.176 28.4934C118.475 27.9841 117.525 27.9841 116.824 28.4934L111.224 32.5623C109.657 33.7011 107.548 32.1689 108.146 30.3262L110.286 23.7426C110.553 22.9186 110.26 22.0159 109.559 21.5066L103.959 17.4377C102.391 16.2989 103.197 13.8197 105.134 13.8197H112.057C112.923 13.8197 113.691 13.2617 113.959 12.4377L116.098 5.8541Z" fill="#F5F1ED"/>
<path d="M165.098 5.8541C165.697 4.01148 168.303 4.01148 168.902 5.8541L171.041 12.4377C171.309 13.2617 172.077 13.8197 172.943 13.8197H179.866C181.803 13.8197 182.609 16.2989 181.041 17.4377L175.441 21.5066C174.74 22.0159 174.447 22.9186 174.714 23.7426L176.854 30.3262C177.452 32.1689 175.343 33.7011 173.776 32.5623L168.176 28.4934C167.475 27.9841 166.525 27.9841 165.824 28.4934L160.224 32.5623C158.657 33.7011 156.548 32.1689 157.146 30.3262L159.286 23.7426C159.553 22.9186 159.26 22.0159 158.559 21.5066L152.959 17.4377C151.391 16.2989 152.197 13.8197 154.134 13.8197H161.057C161.923 13.8197 162.691 13.2617 162.959 12.4377L165.098 5.8541Z" fill="#F5F1ED"/>
<path d="M214.098 5.8541C214.697 4.01148 217.303 4.01148 217.902 5.8541L220.041 12.4377C220.309 13.2617 221.077 13.8197 221.943 13.8197H228.866C230.803 13.8197 231.609 16.2989 230.041 17.4377L224.441 21.5066C223.74 22.0159 223.447 22.9186 223.714 23.7426L225.854 30.3262C226.452 32.1689 224.343 33.7011 222.776 32.5623L217.176 28.4934C216.475 27.9841 215.525 27.9841 214.824 28.4934L209.224 32.5623C207.657 33.7011 205.548 32.1689 206.146 30.3262L208.286 23.7426C208.553 22.9186 208.26 22.0159 207.559 21.5066L201.959 17.4377C200.391 16.2989 201.197 13.8197 203.134 13.8197H210.057C210.923 13.8197 211.691 13.2617 211.959 12.4377L214.098 5.8541Z" fill="#F5F1ED"/>
</svg>
